<svg width="468" height="468" viewBox="0 0 468 468" fill="none" xmlns="http://www.w3.org/2000/svg">
<path d="M333.176 196.486V339.929C333.176 349.965 325.072 358.026 315.103 358.026H60.8587C60.3789 358.026 59.9524 357.973 59.5259 357.866C56.807 357.279 54.7812 354.823 54.7812 351.94V191.147C54.7812 189.92 54.9411 188.745 55.261 187.624C55.3143 187.41 55.3676 187.197 55.4742 186.93C56.6471 183.513 59.2594 180.737 62.5647 179.349C62.778 179.243 62.9912 179.189 63.2045 179.083C67.0429 179.563 70.8281 180.043 74.5066 180.524C225.219 198.995 241.053 181.218 308.652 178.335H314.996C325.072 178.335 333.176 186.45 333.176 196.486Z" fill="#C7CEDA"/>
<path d="M324.645 190.24V345.854C324.645 352.527 319.261 357.919 312.65 357.919H46.251L43.5321 191.04C43.5321 189.812 43.692 188.638 44.0119 187.517C44.0652 187.357 44.1185 187.197 44.1718 187.037C44.1718 186.983 44.2251 186.93 44.2251 186.823C45.398 183.406 48.0103 180.63 51.3156 179.242C51.3156 179.242 51.3689 179.242 51.4222 179.189C51.5288 179.189 51.6888 179.136 51.8487 179.029C52.062 178.976 52.2752 178.869 52.4884 178.815C52.5951 178.762 52.7017 178.762 52.8083 178.709C52.9149 178.709 52.9683 178.655 52.9683 178.655C52.9683 178.655 53.0749 178.602 53.2348 178.602C53.3414 178.548 53.4481 178.548 53.5547 178.548C53.608 178.548 53.6613 178.495 53.7679 178.495C53.9812 178.442 54.2477 178.388 54.5143 178.388C54.7275 178.335 54.9408 178.335 55.154 178.282C55.4206 178.282 55.6872 178.228 55.9537 178.228C56.0603 178.228 56.2203 178.228 56.3269 178.228C58.6726 178.548 60.965 178.815 63.2574 179.136C67.0959 179.616 70.881 180.097 74.5595 180.577C82.6417 181.633 307.426 178.442 308.705 178.388C309.985 178.335 311.264 178.282 312.597 178.228C313.237 178.228 313.876 178.282 314.463 178.388C320.274 179.242 324.645 184.207 324.645 190.24Z" fill="#C7D1DA"/>
<path d="M406.798 125.445L426.348 230.082C427.791 237.851 422.652 245.188 415.018 246.724L212.943 284.486C205.174 285.929 197.837 280.791 196.301 273.157L176.731 168.406C175.309 160.751 180.426 153.3 188.081 151.878L390.156 114.116C390.613 114.031 391.07 113.946 391.549 113.976C394.447 113.674 397.287 114.328 399.798 115.753C403.349 117.694 406.013 121.218 406.798 125.445Z" fill="#1AC1CE"/>
<path d="M239.055 190.873L206.835 196.856C204.321 197.323 201.883 195.648 201.416 193.134L198.191 175.768C197.724 173.254 199.399 170.815 201.912 170.349L234.132 164.365C236.646 163.899 239.084 165.573 239.551 168.087L242.776 185.454C243.243 187.967 241.568 190.406 239.055 190.873Z" fill="white"/>
<path opacity="0.1" d="M220.888 194.246L219.721 187.962L219.085 184.534L215.83 167.646L212.403 168.282L213.57 174.566L198.145 177.431L198.803 180.973L214.227 178.108L215.543 185.192L200.118 188.056L200.776 191.598L216.179 188.62L217.346 194.904L220.888 194.246Z" fill="#364A6B"/>
<path d="M330.333 226.046C332.007 223.608 332.527 220.674 332.039 218.047C331.529 215.305 330.013 212.868 327.575 211.193C319.988 205.983 318.036 195.471 323.246 187.885L371.304 117.617L391.642 113.84L337.256 123.94L289.198 194.208C283.988 201.794 285.94 212.306 293.526 217.516C298.403 220.865 299.655 227.606 296.306 232.483L267.557 274.344L322.286 264.181L301.72 268L330.333 226.046Z" fill="#3AE4EC"/>
<path d="M373.36 183.425C369.08 189.656 370.672 198.225 376.903 202.505L377.31 202.784C383.542 207.064 385.133 215.633 380.853 221.865L356.312 257.744L322.264 264.067L346.805 228.188C351.085 221.956 349.494 213.387 343.262 209.107L342.855 208.828C336.624 204.548 335.032 195.979 339.312 189.747L391.549 113.976C394.447 113.674 397.287 114.328 399.798 115.753C403.349 117.694 406.013 121.218 406.819 125.56L408.156 132.758L373.36 183.425Z" fill="#3AE4EC"/>
<path d="M339.312 189.747C335.032 195.979 336.624 204.548 342.855 208.828L343.262 209.107C349.494 213.387 351.085 221.956 346.805 228.188L322.264 264.067L301.698 267.886L330.447 226.025C332.122 223.586 332.641 220.653 332.153 218.025C331.644 215.283 330.127 212.846 327.689 211.172C320.102 205.962 318.15 195.45 323.36 187.864L371.304 117.617L391.642 113.84L391.549 113.976L339.312 189.747Z" fill="#1AC1CE"/>
<path d="M360.78 237.885C370.308 236.115 376.598 226.957 374.829 217.428C373.059 207.9 363.901 201.61 354.372 203.38C344.844 205.149 338.554 214.308 340.324 223.836C342.093 233.364 351.252 239.654 360.78 237.885Z" fill="#EBEDF1"/>
<path d="M385.666 233.145C395.195 231.376 401.485 222.217 399.715 212.689C397.946 203.16 388.787 196.871 379.259 198.64C369.73 200.41 363.441 209.568 365.21 219.097C366.98 228.625 376.138 234.915 385.666 233.145Z" fill="white"/>
<path d="M253.201 254.317L216.41 261.149C215.154 261.382 213.82 260.566 213.565 259.195C213.332 257.938 214.148 256.605 215.519 256.35L252.309 249.518C253.566 249.285 254.9 250.101 255.154 251.472C255.388 252.729 254.457 254.083 253.201 254.317Z" fill="white"/>
<path d="M313.849 242.936L277.059 249.768C275.802 250.002 274.468 249.185 274.214 247.814C273.98 246.558 274.796 245.224 276.168 244.969L312.958 238.137C314.215 237.904 315.548 238.72 315.803 240.091C315.943 241.483 315.106 242.703 313.849 242.936Z" fill="white"/>
<path d="M358.252 221.217C364.519 241.512 292.291 256.435 288.71 257.928H286.023L291.694 132.573L314.378 128.693C328.405 155.853 356.63 215.964 358.252 221.217Z" fill="url(#paint0_linear)" fill-opacity="0.15"/>
<path d="M153.686 142.504C173.958 142.453 190.35 125.978 190.299 105.706C190.248 85.4338 173.772 69.0416 153.5 69.0929C133.228 69.1441 116.836 85.6194 116.887 105.891C116.939 126.164 133.414 142.556 153.686 142.504Z" fill="#FFC200"/>
<path d="M153.667 135.163C169.885 135.122 182.999 121.942 182.958 105.724C182.917 89.5067 169.736 76.3929 153.519 76.4339C137.301 76.4749 124.187 89.6552 124.228 105.873C124.269 122.09 137.45 135.204 153.667 135.163Z" fill="url(#paint1_linear)"/>
<path d="M161.818 103.553C164.597 102.545 166.48 99.6484 166.471 95.9778C166.458 90.9725 163.002 87.6443 157.551 87.3244L157.539 82.8752L152.089 82.889L152.1 87.3382L149.542 87.3447L149.531 82.8955L144.081 82.9093L144.092 87.3585L139.976 87.3689L139.994 94.4876L143.887 94.4777L143.939 114.944L140.046 114.954L140.064 122.073L144.18 122.062L144.193 127.179L149.643 127.165L149.63 122.048L152.188 122.042L152.201 127.158L157.651 127.145L157.638 122.028C163.644 121.79 167.417 118.11 167.402 112.326C167.28 107.877 165.158 104.435 161.818 103.553ZM150.672 94.4606L156.011 94.4471C156.568 94.4457 157.013 94.5558 157.347 94.6661C158.46 95.1083 159.13 96.1076 159.134 97.6648C159.138 99.2221 158.473 100.336 157.363 100.895C156.918 101.119 156.473 101.12 156.028 101.121L150.689 101.134L150.672 94.4606ZM157.509 114.798C157.064 114.911 156.62 115.023 156.175 115.024L150.836 115.038L150.817 107.808L156.156 107.794C156.713 107.793 157.158 107.903 157.492 108.013C159.161 108.454 160.054 109.675 160.058 111.344C160.063 113.124 159.176 114.349 157.509 114.798Z" fill="#FFF8E5"/>
<path opacity="0.35" d="M286.368 209.565L58.7261 197.233C57.2867 197.233 56.0072 197.18 54.781 196.966C48.3836 195.952 45.2915 191.948 44.012 187.517C44.0653 187.357 44.1186 187.197 44.1719 187.037C44.1719 186.983 44.2253 186.93 44.2253 186.823C45.3981 183.406 48.0104 180.63 51.3157 179.242C51.3157 179.242 51.369 179.242 51.4224 179.189C51.529 179.189 51.6889 179.136 51.8488 179.029C52.1687 178.922 52.5952 178.762 52.8618 178.709C52.9684 178.709 53.0217 178.655 53.0217 178.655C53.0217 178.655 53.1283 178.602 53.2883 178.602C53.3949 178.602 53.5015 178.548 53.6081 178.548C53.6615 178.548 53.7148 178.495 53.8214 178.495C54.3545 178.388 55.1542 178.282 56.0072 178.228C56.1138 178.228 56.2737 178.228 56.3804 178.228C58.7261 178.548 61.0185 178.815 63.3109 179.136C67.1493 179.616 70.9345 180.097 74.613 180.577C76.7455 184.154 80.2641 187.303 86.1284 187.57C99.0298 188.051 255.553 206.949 286.368 209.565Z" fill="#748091"/>
<path d="M276.189 94.3617L334.844 199.084C339.19 206.863 336.349 216.555 328.748 220.951L126.511 334.235C118.732 338.581 109.04 335.74 104.644 328.14L45.9247 223.303C41.6428 215.639 44.4196 205.832 52.084 201.55L254.321 88.2663C254.779 88.0107 255.236 87.755 255.758 87.6138C258.746 86.2449 262.016 85.9189 265.212 86.535C269.706 87.3261 273.824 90.1291 276.189 94.3617Z" fill="#1AC1CE"/>
<path d="M230.818 229.431C231.727 226.222 231.223 222.901 229.753 220.27C228.219 217.525 225.719 215.469 222.51 214.56C212.525 211.733 206.645 201.208 209.473 191.223L235.446 98.8113L255.808 87.4355L201.356 117.856L175.383 210.268C172.556 220.253 178.435 230.778 188.42 233.605C194.839 235.422 198.61 242.172 196.792 248.591L181.192 303.687L235.987 273.074L215.396 284.578L230.818 229.431Z" fill="#3AE4EC"/>
<path d="M261.397 168.369C259.075 176.571 263.868 185.15 272.07 187.473L272.605 187.624C280.807 189.947 285.6 198.526 283.278 206.728L270.013 253.915L235.923 272.96L249.188 225.773C251.51 217.571 246.717 208.992 238.515 206.669L237.98 206.518C229.778 204.195 224.985 195.616 227.307 187.414L255.758 87.6139C258.746 86.2449 262.016 85.919 265.212 86.535C269.707 87.3262 273.824 90.1292 276.253 94.4762L280.279 101.683L261.397 168.369Z" fill="#3AE4EC"/>
<path d="M227.307 187.414C224.985 195.616 229.778 204.195 237.98 206.518L238.515 206.669C246.717 208.991 251.51 217.571 249.188 225.773L235.923 272.96L215.332 284.463L230.933 229.367C231.841 226.158 231.337 222.837 229.867 220.206C228.333 217.461 225.834 215.405 222.624 214.496C212.639 211.669 206.76 201.144 209.587 191.159L235.446 98.8113L255.808 87.4355L255.758 87.6138L227.307 187.414Z" fill="#1AC1CE"/>
<path d="M170.885 181.26L76.5726 234.1C75.3142 234.803 73.5951 234.412 72.8282 233.04C72.1252 231.781 72.5157 230.062 73.8884 229.295L168.201 176.456C169.459 175.753 171.178 176.143 171.945 177.516C172.712 178.889 172.143 180.557 170.885 181.26Z" fill="white"/>
<path d="M168.851 198.307L83.347 246.226C82.0886 246.929 80.3695 246.538 79.6026 245.165C78.8996 243.907 79.29 242.188 80.6628 241.421L166.166 193.503C167.425 192.8 169.144 193.19 169.911 194.563C170.499 195.885 170.109 197.604 168.851 198.307Z" fill="white"/>
<path d="M183.111 206.101L90.0575 258.237C88.7991 258.94 87.08 258.55 86.3131 257.177C85.6101 255.919 86.0005 254.199 87.3733 253.433L180.427 201.296C181.685 200.593 183.404 200.984 184.171 202.356C184.824 203.793 184.37 205.398 183.111 206.101Z" fill="white"/>
<path d="M189.822 218.112L96.7679 270.249C95.5095 270.952 93.7904 270.561 93.0235 269.188C92.3205 267.93 92.711 266.211 94.0837 265.444L187.137 213.308C188.396 212.605 190.115 212.995 190.882 214.368C191.534 215.805 191.08 217.409 189.822 218.112Z" fill="white"/>
<path d="M196.596 230.238L103.542 282.374C102.284 283.077 100.565 282.687 99.7978 281.314C99.0948 280.056 99.4853 278.337 100.858 277.57L193.976 225.548C195.234 224.845 196.953 225.235 197.72 226.608C198.245 227.816 197.854 229.535 196.596 230.238Z" fill="white"/>
<path d="M203.306 242.249L110.253 294.386C108.994 295.089 107.275 294.698 106.508 293.326C105.805 292.067 106.196 290.348 107.568 289.581L200.622 237.445C201.88 236.742 203.6 237.132 204.367 238.505C205.019 239.942 204.565 241.546 203.306 242.249Z" fill="white"/>
<path d="M210.017 254.261L116.963 306.397C115.705 307.1 113.986 306.71 113.219 305.337C112.516 304.079 112.906 302.36 114.279 301.593L207.397 249.571C208.655 248.868 210.374 249.258 211.141 250.631C211.844 251.889 211.275 253.558 210.017 254.261Z" fill="white"/>
<path d="M312.457 199.583L240.796 239.768C238.279 241.174 235.069 240.265 233.663 237.748L193.478 166.087C192.072 163.57 192.981 160.36 195.498 158.954L267.159 118.769C269.676 117.363 272.886 118.272 274.292 120.788L314.477 192.45C315.883 194.967 314.974 198.177 312.457 199.583Z" fill="white"/>
<path d="M252.422 175.925C260.072 171.651 263.094 161.855 258.655 153.91C254.381 146.26 244.585 143.238 236.64 147.677C228.99 151.951 225.968 161.747 230.407 169.692C234.681 177.342 244.607 179.905 252.422 175.925C238.003 183.98 231.987 200.854 236.901 215.87C259.902 223.868 287.405 211.592 294.28 183.814C284.199 171.299 266.84 167.87 252.422 175.925Z" fill="#E8EBF0"/>
<path d="M63.844 197.393L294.471 209.672C301.561 210.045 307.106 215.918 307.106 223.018V357.866V375.91C307.106 383.597 300.655 389.683 292.978 389.256L64.2705 376.39C57.18 376.016 51.6355 370.091 51.6355 362.991V357.919V205.614C51.5822 205.614 58.0863 197.126 63.844 197.393Z" fill="#222E3A" fill-opacity="0.15"/>
<path d="M43.8522 186.826C45.3449 192.111 50.0896 196.115 55.8473 196.381L286.261 209.033C293.352 209.407 298.896 215.279 298.896 222.38V357.228V375.272C298.896 382.959 292.445 389.045 284.768 388.618L56.0073 375.699C48.9168 375.272 43.3723 369.399 43.3723 362.299V357.228V204.923V195.26V190.296L43.8522 186.826Z" fill="#178A9E"/>
<mask id="mask0" mask-type="alpha" maskUnits="userSpaceOnUse" x="43" y="186" width="256" height="203">
<path d="M43.8522 186.826C45.3449 192.111 50.0896 196.115 55.8473 196.381L286.261 209.033C293.352 209.407 298.896 215.279 298.896 222.38V357.228V375.272C298.896 382.959 292.445 389.045 284.768 388.618L56.0073 375.699C48.9168 375.272 43.3723 369.399 43.3723 362.299V357.228V204.923V195.26V190.296L43.8522 186.826Z" fill="#2B66BC"/>
</mask>
<g mask="url(#mask0)">
<path d="M116.244 292.489C85.9136 292.489 32.9814 285.472 8.55595 270.223L53.0885 92.0929C124.341 96.951 268.707 106.91 276.156 107.882C285.467 109.096 352.671 270.223 310.568 255.649C268.464 241.074 181.423 292.489 116.244 292.489Z" fill="#02B2C4"/>
<path d="M103.694 268.604C73.3636 268.604 26.0992 260.777 1.67374 245.528L44.1821 77.5187C115.434 82.3768 259.801 92.3359 267.25 93.3075C276.561 94.522 340.121 244.313 298.018 229.739C255.914 215.165 168.873 268.604 103.694 268.604Z" fill="#A1D3CE"/>
<path d="M86.2854 243.504C55.9553 243.504 13.549 231.223 -10.8765 215.974L32.4415 59.7057C103.694 64.5638 248.06 74.5229 255.509 75.4945C264.82 76.709 337.692 221.237 295.588 206.663C253.485 192.089 151.465 243.504 86.2854 243.504Z" fill="#C9E2D4"/>
<path d="M95.1919 221.642C64.8617 221.642 22.4554 209.362 -1.97 194.113L41.348 37.8444C112.6 42.7025 256.966 52.6615 264.416 53.6332C273.727 54.8477 346.598 199.376 304.495 184.802C262.391 170.227 160.371 221.642 95.1919 221.642Z" fill="#FEE2C4"/>
</g>
<g opacity="0.63">
<g opacity="0.43">
<g opacity="0.43">
<path opacity="0.43" d="M53.9283 204.6V203.532C53.9283 203.532 54.3014 203.586 54.9945 203.639" stroke="#1F3C6A" stroke-width="1.19386" stroke-linecap="round" stroke-linejoin="round"/>
<path opacity="0.43" d="M59.2059 204.173C62.4046 204.546 66.3497 204.92 69.0153 205.08L282.263 216.825C288.713 217.198 293.778 222.537 293.778 228.996V351.726V368.169C293.778 375.162 287.914 380.714 280.93 380.34L65.4434 367.795C58.9927 367.421 53.928 362.083 53.928 355.57V350.926V212.34V206.735" stroke="#1F3C6A" stroke-width="1.19386" stroke-linecap="round" stroke-linejoin="round" stroke-dasharray="2.38 2.38"/>
</g>
</g>
</g>
<path d="M112.879 217.583C134.57 209.235 145.386 184.884 137.038 163.192C128.69 141.501 104.338 130.685 82.6474 139.033C60.9564 147.381 50.1398 171.732 58.4879 193.424C66.836 215.115 91.1875 225.931 112.879 217.583Z" fill="#FFC200"/>
<path d="M109.855 209.728C127.208 203.05 135.862 183.568 129.183 166.216C122.505 148.863 103.023 140.209 85.6705 146.888C68.3177 153.566 59.6644 173.048 66.3429 190.4C73.0214 207.753 92.5026 216.407 109.855 209.728Z" fill="url(#paint2_linear)"/>
<path d="M105.654 172.538C108.217 170.322 109.05 166.449 107.538 162.521C105.477 157.166 100.413 155.015 94.444 156.903L92.6118 152.142L86.78 154.386L88.6122 159.147L85.8749 160.2L84.0427 155.44L78.2109 157.684L80.0431 162.445L75.6395 164.14L78.571 171.757L82.7366 170.153L91.1646 192.052L86.9991 193.655L89.9306 201.272L94.3342 199.578L96.4412 205.052L102.273 202.808L100.166 197.333L102.903 196.28L105.01 201.754L110.842 199.51L108.735 194.035C115.07 191.324 117.605 185.839 115.223 179.65C113.272 174.935 109.591 172.116 105.654 172.538ZM89.9965 167.359L95.7093 165.161C96.3043 164.932 96.8262 164.868 97.2291 164.849C98.6024 164.867 99.7288 165.663 100.37 167.33C101.011 168.996 100.755 170.461 99.7941 171.514C99.4097 171.935 98.9336 172.118 98.4576 172.302L92.7448 174.5L89.9965 167.359ZM105.639 186.345C105.208 186.647 104.778 186.95 104.302 187.133L98.5894 189.331L95.6121 181.595L101.325 179.397C101.92 179.168 102.442 179.104 102.845 179.085C104.813 178.874 106.269 179.817 106.956 181.602C107.689 183.506 107.241 185.182 105.639 186.345Z" fill="#FFF8E5"/>
<path d="M331.043 329.786C328.804 330.106 326.725 328.505 326.405 326.262L325.072 316.173C324.966 315.479 324.859 314.838 324.752 314.198C323.846 310.034 321.927 306.297 319.261 303.254C316.116 299.624 311.904 296.955 307.213 295.673C306.573 292.63 305.72 289.641 304.654 286.758C313.237 287.719 320.967 292.097 326.298 298.663C329.231 302.293 331.416 306.564 332.589 311.261C332.856 312.383 333.069 313.557 333.229 314.678L334.615 325.088C334.882 327.383 333.282 329.465 331.043 329.786Z" fill="#E8EBF0"/>
<path opacity="0.3" d="M332.482 311.262C330.19 315.105 324.912 314.198 324.646 314.144C323.739 309.98 321.82 306.243 319.154 303.201L326.192 298.609C329.124 302.293 331.31 306.564 332.482 311.262Z" fill="#222E3A"/>
<path d="M324.112 272.237C324.112 272.237 304.867 272.237 289.619 272.184C279.65 272.184 271.493 280.245 271.493 290.281C271.493 300.264 279.597 308.378 289.566 308.378H324.699C329.39 308.378 333.122 304.588 333.122 299.944V263.215C333.175 268.18 329.124 272.237 324.112 272.237Z" fill="#8F9DB4"/>
<path d="M295.911 290.441C295.911 291.936 295.484 293.324 294.684 294.499C294.311 295.086 293.831 295.62 293.298 296.1C292.232 297.061 290.846 297.648 289.353 297.808C289.14 297.808 288.98 297.862 288.767 297.862H288.5C286.581 297.862 284.875 297.168 283.542 295.993C282.689 295.193 281.996 294.232 281.57 293.111C281.25 292.257 281.09 291.402 281.09 290.441C281.09 286.331 284.395 283.021 288.5 283.021C291.432 283.021 293.938 284.676 295.164 287.132C295.431 287.719 295.697 288.36 295.804 289C295.857 289.481 295.911 289.961 295.911 290.441Z" fill="#222E3A"/>
<path d="M295.91 290.442C295.91 291.936 295.484 293.324 294.684 294.499C294.311 295.086 293.831 295.62 293.298 296.1C291.912 296.527 290.579 297.168 289.353 297.809C287.753 298.663 286.314 299.73 284.981 300.905C284.875 301.012 284.768 301.118 284.661 301.225C283.968 301.812 283.382 302.506 282.795 303.147C278.371 308.219 276.025 315.105 277.038 322.312L278.424 332.722C278.744 334.964 277.144 337.046 274.905 337.366C273.786 337.526 272.72 337.206 271.867 336.565C271.014 335.925 270.427 334.964 270.267 333.843L270.214 333.309L268.934 323.86C267.655 314.304 270.587 305.015 276.345 298.182C276.611 297.862 276.878 297.595 277.144 297.275L277.198 297.221C278.531 295.727 280.023 294.339 281.623 293.164C283.702 291.563 286.047 290.228 288.553 289.16C290.632 288.253 292.871 287.612 295.217 287.185C295.484 287.772 295.75 288.413 295.857 289.054C295.857 289.481 295.91 289.961 295.91 290.442Z" fill="#E8EBF0"/>
<path d="M340.852 391.711L339.573 391.872L323.046 394.114L282.796 399.559L281.889 399.666C279.01 400.039 276.398 398.064 276.025 395.181L268.295 338.06C268.028 336.192 268.828 334.43 270.161 333.309C270.854 332.722 271.76 332.348 272.773 332.188L273.946 332.028L274.852 331.921C275.119 331.868 275.332 331.868 275.545 331.868C276.558 331.868 277.571 332.188 278.424 332.722C279.384 333.363 280.183 334.323 280.557 335.498C280.61 335.711 280.716 335.872 280.77 336.085C281.729 338.167 283.915 339.448 286.208 339.128L315.316 335.178L320.594 334.484C323.099 334.163 325.019 332.028 325.125 329.519C325.179 328.291 325.658 327.17 326.405 326.262C327.204 325.355 328.324 324.714 329.657 324.501L330.776 324.341L331.789 324.18C332.749 324.074 333.708 324.18 334.561 324.554C336.161 325.248 337.387 326.743 337.654 328.665L345.384 385.786C345.704 388.668 343.731 391.338 340.852 391.711Z" fill="#8F9DB4"/>
<path d="M282.795 399.558L281.889 399.665C279.01 400.039 276.398 398.064 276.025 395.181L268.295 338.06C267.921 335.177 269.894 332.561 272.773 332.188L273.946 332.028L282.795 399.558Z" fill="white" fill-opacity="0.25"/>
<path d="M339.573 391.871L323.046 394.113L316.062 340.836L315.316 335.177L320.594 334.483C323.1 334.163 325.019 332.028 325.125 329.519C325.179 328.291 325.659 327.17 326.405 326.262C327.205 325.355 328.324 324.714 329.657 324.501L330.776 324.34L331.47 329.732L339.573 391.871Z" fill="white" fill-opacity="0.25"/>
<path opacity="0.5" d="M295.911 290.441C295.911 291.936 295.484 293.324 294.684 294.499C294.311 295.086 293.831 295.62 293.298 296.1C291.912 296.527 290.579 297.168 289.353 297.808C290.26 293.698 288.5 289.107 288.5 289.107C290.579 288.199 292.818 287.559 295.164 287.132C295.431 287.719 295.697 288.359 295.804 289C295.857 289.48 295.911 289.961 295.911 290.441Z" fill="#8F9DB4"/>
<path opacity="0.3" d="M280.13 306.831C280.13 306.831 282.636 308.325 289.033 308.325C301.934 308.325 322.513 308.272 322.513 308.272C323.686 309.927 324.699 314.144 324.699 314.144H277.304C277.838 310.834 280.13 306.831 280.13 306.831Z" fill="#222E3A"/>
<defs>
<linearGradient id="paint0_linear" x1="294.38" y1="130.484" x2="346.612" y2="312.248" gradientUnits="userSpaceOnUse">
<stop stop-color="#222E3A"/>
<stop offset="1" stop-color="#222E3A" stop-opacity="0"/>
</linearGradient>
<linearGradient id="paint1_linear" x1="153.519" y1="76.4339" x2="153.667" y2="135.163" gradientUnits="userSpaceOnUse">
<stop stop-color="#FFD140"/>
<stop offset="1" stop-color="#FFD140" stop-opacity="0"/>
</linearGradient>
<linearGradient id="paint2_linear" x1="85.6705" y1="146.888" x2="109.855" y2="209.728" gradientUnits="userSpaceOnUse">
<stop stop-color="#FFD140"/>
<stop offset="1" stop-color="#FFD140" stop-opacity="0"/>
</linearGradient>
</defs>
</svg>
