<svg data-v-423bf9ae="" xmlns="http://www.w3.org/2000/svg" viewBox="0 0 596.5366781422139 163" class="iconAbove"><!----><!----><!----><g data-v-423bf9ae="" id="f2b426cd-b6aa-49d7-9052-b41297c090b0" fill="#0E261C" transform="matrix(4.497751235961914,0,0,4.497751235961914,-1.7091419696807861,82.89505767822266)"><path d="M5.59 5.50L4.61 7.27L1.95 11.48C1.53 12.15 0.38 13.75 0.38 13.75L0.48 14.55L5.35 14.55C5.63 14.55 6.94 14.60 6.94 14.60L7.21 14.35L7.42 12.10L6.65 12.03C6.62 12.25 6.50 12.89 6.44 13.10C6.43 13.20 6.30 13.41 6.16 13.59C5.85 13.65 5.36 13.72 4.93 13.72L2.09 13.72L3.11 11.87L5.78 7.63L7.29 5.46L7.20 4.68L2.56 4.68C2.28 4.68 0.97 4.54 0.97 4.54L0.70 4.79L0.60 7.15L1.41 7.22C1.44 6.86 1.54 6.26 1.60 6.05L1.82 5.57C2.13 5.54 2.62 5.50 3.02 5.50ZM11.83 13.79L10.74 13.69C10.74 13.69 10.64 12.91 10.64 12.21L10.64 10.02C10.64 9.32 10.74 7.88 10.74 7.88L10.47 7.63L9.66 7.63C9.38 7.63 8.37 7.57 8.37 7.57L8.30 8.32L9.37 8.54C9.37 8.54 9.51 9.32 9.51 9.60L9.51 12.63C9.51 12.91 9.37 13.69 9.37 13.69L8.30 13.92L8.37 14.62C8.37 14.62 9.65 14.55 9.93 14.55C11.05 14.55 11.73 14.62 11.73 14.62ZM10.08 4.47C9.55 4.47 9.25 4.84 9.25 5.38C9.25 5.91 9.55 6.27 10.08 6.27C10.61 6.27 10.91 5.91 10.91 5.38C10.91 4.80 10.60 4.47 10.08 4.47ZM16.41 7.50C15.65 7.50 14.73 8.09 14.43 8.78L14.35 7.88L14.08 7.63L13.58 7.63C13.30 7.63 12.29 7.57 12.29 7.57L12.22 8.32L13.29 8.54C13.29 8.54 13.43 9.32 13.43 9.60L13.43 15.89C13.43 16.21 13.29 16.88 13.29 16.88L12.36 17.11L12.43 17.81C12.43 17.81 13.44 17.74 13.86 17.74C14.98 17.74 15.93 17.81 15.93 17.81L16.03 16.98L14.66 16.88C14.66 16.88 14.56 16.10 14.56 15.40L14.56 14.34C15.06 14.56 15.58 14.69 16.06 14.69C17.92 14.69 19.28 13.12 19.28 10.96C19.28 8.76 18.23 7.50 16.41 7.50ZM16.30 8.36C17.43 8.36 18.02 9.25 18.02 10.99C18.02 12.84 17.29 13.85 15.97 13.85C15.54 13.85 15.05 13.68 14.56 13.34L14.56 10.57C14.56 9.24 15.25 8.36 16.30 8.36ZM26.84 11.10C26.84 8.93 25.77 7.50 23.62 7.50C21.49 7.50 20.40 8.96 20.40 11.10C20.40 13.23 21.49 14.69 23.62 14.69C25.75 14.69 26.84 13.23 26.84 11.10ZM25.52 11.10C25.52 12.54 25.06 13.89 23.62 13.89C22.18 13.89 21.71 12.54 21.71 11.10C21.71 9.66 22.18 8.30 23.62 8.30C25.06 8.30 25.52 9.66 25.52 11.10ZM27.85 11.52L30.86 11.52L30.93 10.47L27.82 10.47ZM39.89 13.79L39.02 13.65L38.47 12.46L35.59 4.54L34.78 4.68L32.27 12.31L31.67 13.69L30.79 13.93L30.84 14.62C30.84 14.62 32.21 14.55 32.73 14.55L33.94 14.55L34.01 13.79L33.03 13.65L33.17 12.77L33.61 11.30L36.69 11.30L36.99 12.14L37.37 13.65L36.34 13.93L36.40 14.62C36.40 14.62 37.97 14.55 38.40 14.55L39.82 14.55ZM35.10 6.75L36.41 10.54L33.87 10.60ZM44.25 4.61C44.25 4.61 43.46 4.68 42.34 4.68C42.06 4.68 40.71 4.61 40.71 4.61L40.64 5.36L41.72 5.53C41.75 5.71 41.85 6.36 41.85 6.59L41.85 12.63C41.85 12.87 41.75 13.51 41.72 13.69L40.61 13.92L40.68 14.62C40.68 14.62 42.06 14.55 42.34 14.55C43.46 14.55 44.38 14.62 44.38 14.62L44.48 13.79L43.22 13.69C43.19 13.50 43.12 12.80 43.12 12.21L43.12 7.01C43.12 6.43 43.19 5.73 43.22 5.53L44.31 5.43ZM49.70 4.54C48.78 4.54 47.98 4.65 47.08 4.68C46.61 4.65 45.71 4.61 45.71 4.61L45.64 5.36L46.72 5.53C46.75 5.71 46.84 6.36 46.84 6.59L46.84 12.63C46.84 12.87 46.75 13.51 46.72 13.69L45.61 13.92L45.68 14.62C45.68 14.62 47.04 14.55 47.33 14.55C48.17 14.55 49.14 14.63 49.70 14.63C52.72 14.63 54.53 12.60 54.53 9.62C54.53 6.50 52.82 4.54 49.70 4.54ZM49.71 5.38C52.05 5.38 53.14 7.28 53.14 9.62C53.14 11.93 52.05 13.80 49.71 13.80C49.10 13.80 48.58 13.78 48.22 13.75C48.20 13.69 48.12 12.88 48.12 12.21L48.12 7.01C48.12 6.45 48.19 5.71 48.22 5.45C48.57 5.40 49.07 5.38 49.71 5.38ZM62.29 13.79L61.19 13.69C61.19 13.69 61.10 12.91 61.10 12.21L61.10 10.02C61.10 9.32 61.19 7.88 61.19 7.88L60.93 7.63L60.12 7.63C59.84 7.63 58.83 7.57 58.83 7.57L58.76 8.32L59.82 8.54C59.82 8.54 59.96 9.32 59.96 9.60L59.96 12.63C59.96 12.91 59.82 13.69 59.82 13.69L58.76 13.92L58.83 14.62C58.83 14.62 60.10 14.55 60.38 14.55C61.50 14.55 62.19 14.62 62.19 14.62ZM60.54 4.47C60.00 4.47 59.71 4.84 59.71 5.38C59.71 5.91 60.00 6.27 60.54 6.27C61.07 6.27 61.36 5.91 61.36 5.38C61.36 4.80 61.05 4.47 60.54 4.47ZM62.97 8.32L64.04 8.54C64.04 8.54 64.18 9.32 64.18 9.60L64.18 12.70C64.15 13.02 64.04 13.69 64.04 13.69L62.97 13.92L63.04 14.62C63.04 14.62 64.32 14.55 64.60 14.55C65.72 14.55 66.40 14.62 66.40 14.62L66.50 13.79L65.41 13.69C65.41 13.69 65.31 12.91 65.31 12.21L65.31 10.71C65.32 9.34 66.00 8.36 67.10 8.36C68.28 8.36 68.54 9.51 68.54 10.68L68.54 12.63C68.54 12.98 68.47 13.38 68.40 13.69L67.47 13.92L67.54 14.62C67.54 14.62 68.68 14.55 68.96 14.55C70.08 14.55 70.77 14.62 70.77 14.62L70.87 13.79L69.78 13.69C69.78 13.69 69.68 12.91 69.68 12.21L69.68 10.68C69.68 8.75 69.24 7.50 67.31 7.50C66.25 7.50 65.52 8.13 65.18 8.78L65.10 7.88L64.83 7.63L64.33 7.63C64.05 7.63 63.04 7.57 63.04 7.57ZM78.02 8.37L77.98 7.56C77.98 7.56 77.38 7.63 76.26 7.63C75.98 7.63 75.08 7.59 75.08 7.59L75.01 8.32L76.06 8.47C75.96 8.92 75.85 9.45 75.78 9.63L74.62 13.10L73.42 9.66C73.35 9.48 73.21 8.95 73.08 8.47L73.92 8.37L73.88 7.56C73.88 7.56 73.18 7.63 72.06 7.63C71.78 7.63 70.81 7.59 70.81 7.59L70.74 8.32L71.60 8.47C71.85 8.93 72.10 9.53 72.17 9.73C72.28 10.04 74.00 14.55 74.00 14.55L74.94 14.55L76.55 10.08C76.64 9.87 76.99 9.04 77.25 8.46ZM81.34 7.50C79.28 7.50 78.29 9.02 78.29 11.12C78.29 13.23 79.39 14.69 81.51 14.69C83.09 14.69 83.99 13.85 83.99 13.85L83.59 13.20C83.59 13.20 82.70 13.78 81.51 13.78C80.25 13.78 79.65 12.49 79.60 11.23L83.79 11.23L84.03 10.77C84.03 8.81 83.30 7.50 81.34 7.50ZM81.28 8.23C82.28 8.23 82.74 9.02 82.74 10.01C82.74 10.08 82.73 10.29 82.73 10.29L79.62 10.53C79.72 9.37 80.14 8.23 81.28 8.23ZM87.36 7.50C86.06 7.50 85.09 8.19 85.09 9.37C85.09 11.63 88.63 11.44 88.63 12.91C88.63 13.65 88.14 13.97 87.36 13.97C86.91 13.97 86.51 13.89 86.18 13.64C86.07 13.31 85.97 12.95 85.97 12.81L85.97 12.28L85.16 12.24L85.01 14.14C85.01 14.14 85.93 14.69 87.32 14.69C88.84 14.69 89.78 14.11 89.78 12.64C89.78 10.43 86.21 10.57 86.21 9.14C86.21 8.57 86.66 8.23 87.35 8.23C87.74 8.23 87.99 8.27 88.28 8.40C88.38 8.72 88.48 9.06 88.48 9.20L88.48 9.70L89.29 9.74L89.46 7.74C88.79 7.60 88.03 7.50 87.36 7.50ZM94.72 13.38C94.72 13.38 94.12 13.79 93.62 13.79C93.10 13.79 92.86 13.40 92.86 12.70L92.86 8.39L94.75 8.39L94.82 7.63L92.86 7.63L92.86 6.19L92.37 6.13C92.37 6.13 91.84 7.25 91.73 7.39C91.41 7.59 91.07 7.64 90.61 7.80L90.65 8.39L91.73 8.39L91.73 12.36C91.73 13.90 92.13 14.69 93.46 14.69C94.16 14.69 94.67 14.31 95.12 13.96ZM99.96 7.50C98.91 7.50 98.20 8.13 97.86 8.78L97.78 7.88L97.51 7.63L97.01 7.63C96.73 7.63 95.72 7.57 95.72 7.57L95.65 8.32L96.71 8.54C96.71 8.54 96.85 9.32 96.85 9.60L96.85 12.70C96.82 13.02 96.71 13.69 96.71 13.69L95.65 13.92L95.72 14.62C95.72 14.62 96.99 14.55 97.27 14.55C98.39 14.55 99.08 14.62 99.08 14.62L99.18 13.79L98.08 13.69C98.08 13.69 97.99 12.91 97.99 12.21L97.99 10.71C98.00 9.34 98.67 8.36 99.72 8.36C100.77 8.36 101.00 9.51 101.00 10.68L101.00 12.63C101.00 12.98 100.93 13.38 100.86 13.69L99.92 13.92L99.99 14.62C99.99 14.62 101.14 14.55 101.42 14.55C102.54 14.55 103.22 14.62 103.22 14.62L103.32 13.79L102.23 13.69C102.23 13.69 102.13 12.91 102.13 12.21L102.13 10.68L102.13 10.58C102.17 9.27 102.84 8.36 103.87 8.36C104.92 8.36 105.14 9.51 105.14 10.68L105.14 12.63C105.14 12.98 105.07 13.38 105.00 13.69L104.06 13.92L104.13 14.62C104.13 14.62 105.28 14.55 105.56 14.55C106.68 14.55 107.37 14.62 107.37 14.62L107.46 13.79L106.37 13.69C106.37 13.69 106.27 12.91 106.27 12.21L106.27 10.68C106.27 8.75 105.88 7.50 104.10 7.50C103.04 7.50 102.30 8.15 101.91 8.83C101.64 7.99 101.07 7.50 99.96 7.50ZM111.22 7.50C109.16 7.50 108.16 9.02 108.16 11.12C108.16 13.23 109.27 14.69 111.38 14.69C112.97 14.69 113.86 13.85 113.86 13.85L113.47 13.20C113.47 13.20 112.57 13.78 111.38 13.78C110.12 13.78 109.52 12.49 109.48 11.23L113.67 11.23L113.90 10.77C113.90 8.81 113.18 7.50 111.22 7.50ZM111.16 8.23C112.15 8.23 112.62 9.02 112.62 10.01C112.62 10.08 112.60 10.29 112.60 10.29L109.49 10.53C109.59 9.37 110.01 8.23 111.16 8.23ZM114.80 8.32L115.86 8.54C115.86 8.54 116.00 9.32 116.00 9.60L116.00 12.70C115.98 13.02 115.86 13.69 115.86 13.69L114.80 13.92L114.87 14.62C114.87 14.62 116.14 14.55 116.42 14.55C117.54 14.55 118.23 14.62 118.23 14.62L118.33 13.79L117.24 13.69C117.24 13.69 117.14 12.91 117.14 12.21L117.14 10.71C117.15 9.34 117.82 8.36 118.93 8.36C120.11 8.36 120.37 9.51 120.37 10.68L120.37 12.63C120.37 12.98 120.30 13.38 120.23 13.69L119.29 13.92L119.36 14.62C119.36 14.62 120.51 14.55 120.79 14.55C121.91 14.55 122.60 14.62 122.60 14.62L122.70 13.79L121.60 13.69C121.60 13.69 121.51 12.91 121.51 12.21L121.51 10.68C121.51 8.75 121.07 7.50 119.14 7.50C118.08 7.50 117.35 8.13 117.01 8.78L116.93 7.88L116.66 7.63L116.16 7.63C115.88 7.63 114.87 7.57 114.87 7.57ZM127.23 13.38C127.23 13.38 126.63 13.79 126.13 13.79C125.61 13.79 125.37 13.40 125.37 12.70L125.37 8.39L127.26 8.39L127.33 7.63L125.37 7.63L125.37 6.19L124.88 6.13C124.88 6.13 124.35 7.25 124.24 7.39C123.91 7.59 123.58 7.64 123.12 7.80L123.16 8.39L124.24 8.39L124.24 12.36C124.24 13.90 124.64 14.69 125.97 14.69C126.67 14.69 127.18 14.31 127.62 13.96ZM130.59 7.50C129.29 7.50 128.32 8.19 128.32 9.37C128.32 11.63 131.87 11.44 131.87 12.91C131.87 13.65 131.38 13.97 130.59 13.97C130.14 13.97 129.74 13.89 129.42 13.64C129.30 13.31 129.21 12.95 129.21 12.81L129.21 12.28L128.39 12.24L128.24 14.14C128.24 14.14 129.16 14.69 130.55 14.69C132.08 14.69 133.01 14.11 133.01 12.64C133.01 10.43 129.44 10.57 129.44 9.14C129.44 8.57 129.89 8.23 130.58 8.23C130.97 8.23 131.22 8.27 131.52 8.40C131.61 8.72 131.71 9.06 131.71 9.20L131.71 9.70L132.52 9.74L132.69 7.74C132.02 7.60 131.26 7.50 130.59 7.50Z"></path></g><defs data-v-423bf9ae=""><linearGradient data-v-423bf9ae="" gradientTransform="rotate(25)" id="a7de775d-2921-428d-b22d-710347b63450" x1="0%" y1="0%" x2="100%" y2="0%"><stop data-v-423bf9ae="" offset="0%" style="stop-color: rgb(10, 55, 50); stop-opacity: 1;"></stop><stop data-v-423bf9ae="" offset="100%" style="stop-color: rgb(85, 195, 136); stop-opacity: 1;"></stop></linearGradient></defs><g data-v-423bf9ae="" id="d8226f94-7dc3-4560-a364-05a5802596fb" transform="matrix(1.5800285339355469,0,0,1.5800285339355469,220.08859252929688,-67.95398712158203)" stroke="none" fill="url(#a7de775d-2921-428d-b22d-710347b63450)"><path d="M47.913 84.541c0 2.188-5.008 3.964-11.188 3.964-6.176 0-11.186-1.775-11.186-3.964v4.145c0 2.189 5.009 3.964 11.186 3.964 6.18 0 11.188-1.774 11.188-3.964v-4.145zM47.913 74.785c0 2.19-5.008 3.965-11.188 3.965-6.176 0-11.186-1.774-11.186-3.965 0-2.189 5.009-3.964 11.186-3.964 6.179 0 11.188 1.775 11.188 3.964"></path><path d="M47.913 77.591c0 2.189-5.008 3.964-11.188 3.964-6.176 0-11.186-1.774-11.186-3.964v4.145c0 2.189 5.009 3.964 11.186 3.964 6.18 0 11.188-1.774 11.188-3.964v-4.145zM47.913 91.874c0 2.189-5.008 3.964-11.188 3.964-6.176 0-11.186-1.774-11.186-3.964v4.146c0 2.188 5.009 3.962 11.186 3.962 6.18 0 11.188-1.774 11.188-3.962v-4.146zM73.851 84.541c0 2.188-5.007 3.964-11.188 3.964-6.175 0-11.187-1.775-11.187-3.964v4.145c0 2.189 5.009 3.964 11.187 3.964 6.181 0 11.188-1.774 11.188-3.964v-4.145z"></path><path d="M73.851 77.591c0 2.189-5.007 3.964-11.188 3.964-6.175 0-11.187-1.774-11.187-3.964v4.145c0 2.189 5.009 3.964 11.187 3.964 6.181 0 11.188-1.774 11.188-3.964v-4.145z"></path><path d="M73.851 70.641c0 2.189-5.007 3.965-11.188 3.965-6.175 0-11.187-1.775-11.187-3.965v4.145c0 2.19 5.009 3.965 11.187 3.965 6.181 0 11.188-1.774 11.188-3.965v-4.145zM73.851 60.886c0 2.189-5.007 3.964-11.188 3.964-6.175 0-11.187-1.774-11.187-3.964s5.009-3.965 11.187-3.965c6.181 0 11.188 1.774 11.188 3.965"></path><path d="M73.851 63.69c0 2.19-5.007 3.965-11.188 3.965-6.175 0-11.187-1.774-11.187-3.965v4.146c0 2.188 5.009 3.964 11.187 3.964 6.181 0 11.188-1.775 11.188-3.964V63.69zM73.851 91.874c0 2.189-5.007 3.964-11.188 3.964-6.175 0-11.187-1.774-11.187-3.964v4.146c0 2.188 5.009 3.962 11.187 3.962 6.181 0 11.188-1.774 11.188-3.962v-4.146zM99.78 84.541c0 2.188-5.006 3.964-11.186 3.964-6.176 0-11.188-1.775-11.188-3.964v4.145c0 2.189 5.009 3.964 11.188 3.964s11.186-1.774 11.186-3.964v-4.145z"></path><path d="M99.78 77.591c0 2.189-5.006 3.964-11.186 3.964-6.176 0-11.188-1.774-11.188-3.964v4.145c0 2.189 5.009 3.964 11.188 3.964s11.186-1.774 11.186-3.964v-4.145z"></path><path d="M99.78 70.641c0 2.189-5.006 3.965-11.186 3.965-6.176 0-11.188-1.775-11.188-3.965v4.145c0 2.19 5.009 3.965 11.188 3.965s11.186-1.774 11.186-3.965v-4.145z"></path><path d="M99.78 63.69c0 2.19-5.006 3.965-11.186 3.965-6.176 0-11.188-1.774-11.188-3.965v4.146c0 2.188 5.009 3.964 11.188 3.964s11.186-1.775 11.186-3.964V63.69z"></path><path d="M99.78 56.741c0 2.189-5.006 3.964-11.186 3.964-6.176 0-11.188-1.774-11.188-3.964v4.145c0 2.189 5.009 3.964 11.188 3.964s11.186-1.774 11.186-3.964v-4.145zM99.78 46.986c0 2.189-5.006 3.964-11.186 3.964-6.176 0-11.188-1.775-11.188-3.964 0-2.19 5.009-3.964 11.188-3.964s11.186 1.774 11.186 3.964"></path><path d="M99.78 49.791c0 2.189-5.006 3.964-11.186 3.964-6.176 0-11.188-1.774-11.188-3.964v4.145c0 2.19 5.009 3.965 11.188 3.965s11.186-1.774 11.186-3.965v-4.145zM99.78 91.874c0 2.189-5.006 3.964-11.186 3.964-6.176 0-11.188-1.774-11.188-3.964v4.146c0 2.188 5.009 3.962 11.188 3.962S99.78 98.208 99.78 96.02v-4.146zM21.975 89.066c0 2.192-5.009 3.967-11.187 3.967-6.177 0-11.187-1.774-11.187-3.967 0-2.188 5.01-3.962 11.187-3.962 6.178 0 11.187 1.775 11.187 3.962"></path><path d="M21.975 91.874c0 2.188-5.009 3.962-11.187 3.962-6.177 0-11.187-1.774-11.187-3.962v4.144c0 2.19 5.01 3.965 11.187 3.965 6.178 0 11.187-1.774 11.187-3.965v-4.144z"></path></g><!----></svg>