<svg width="181" height="195" viewBox="0 0 181 195" fill="none" xmlns="http://www.w3.org/2000/svg">
<path d="M165.541 20.3691H157.541L91.2413 164.169L24.9413 20.3691H16.3413L90.9413 179.269L165.541 20.3691Z" fill="#E8F2E0"/>
<path d="M45.4413 23.2687C45.4413 35.5687 35.4413 45.5687 23.1413 45.5687C10.8413 45.5687 0.841309 35.5687 0.841309 23.2687C0.841309 10.9687 10.8413 0.96875 23.1413 0.96875C35.4413 0.96875 45.4413 10.9687 45.4413 23.2687Z" fill="#004D7A"/>
<path fill-rule="evenodd" clip-rule="evenodd" d="M23.1413 38.1688C31.3413 38.1688 38.0413 31.4687 38.0413 23.2687C38.0413 15.0687 31.3413 8.3688 23.1413 8.3688C14.9413 8.3688 8.24131 15.0687 8.24131 23.2687C8.24131 31.4687 14.9413 38.1688 23.1413 38.1688ZM23.1413 45.5687C35.4413 45.5687 45.4413 35.5687 45.4413 23.2687C45.4413 10.9687 35.4413 0.96875 23.1413 0.96875C10.8413 0.96875 0.841309 10.9687 0.841309 23.2687C0.841309 35.5687 10.8413 45.5687 23.1413 45.5687Z" fill="#E8F2E0"/>
<path d="M180.441 23.2687C180.441 35.5687 170.441 45.5687 158.141 45.5687C145.841 45.5687 135.841 35.5687 135.841 23.2687C135.841 10.9687 145.841 0.96875 158.141 0.96875C170.441 0.96875 180.441 10.9687 180.441 23.2687Z" fill="#004D7A"/>
<path fill-rule="evenodd" clip-rule="evenodd" d="M158.141 38.1688C166.341 38.1688 173.041 31.4687 173.041 23.2687C173.041 15.0687 166.341 8.3688 158.141 8.3688C149.941 8.3688 143.241 15.0687 143.241 23.2687C143.241 31.4687 149.941 38.1688 158.141 38.1688ZM158.141 45.5687C170.441 45.5687 180.441 35.5687 180.441 23.2687C180.441 10.9687 170.441 0.96875 158.141 0.96875C145.841 0.96875 135.841 10.9687 135.841 23.2687C135.841 35.5687 145.841 45.5687 158.141 45.5687Z" fill="#E8F2E0"/>
<path d="M113.241 171.868C113.241 184.168 103.241 194.168 90.9411 194.168C78.6411 194.168 68.6411 184.168 68.6411 171.868C68.6411 159.568 78.6411 149.568 90.9411 149.568C103.241 149.568 113.241 159.568 113.241 171.868Z" fill="#004D7A"/>
<path fill-rule="evenodd" clip-rule="evenodd" d="M90.9411 186.768C99.1411 186.768 105.841 180.068 105.841 171.868C105.841 163.668 99.1411 156.968 90.9411 156.968C82.7411 156.968 76.0411 163.668 76.0411 171.868C76.0411 180.068 82.7411 186.768 90.9411 186.768ZM90.9411 194.168C103.241 194.168 113.241 184.168 113.241 171.868C113.241 159.568 103.241 149.568 90.9411 149.568C78.6411 149.568 68.6411 159.568 68.6411 171.868C68.6411 184.168 78.6411 194.168 90.9411 194.168Z" fill="#E8F2E0"/>
</svg>